<svg xmlns="http://www.w3.org/2000/svg" width="16.7" height="22.224" viewBox="0 0 16.7 22.224">
  <g id="Pin" transform="translate(-7.9 0.1)">
    <path id="Path_74388" data-name="Path 74388" d="M24.781,13a3.781,3.781,0,1,0,3.781,3.781A3.781,3.781,0,0,0,24.781,13Zm0,6.875a3.094,3.094,0,1,1,3.094-3.094A3.094,3.094,0,0,1,24.781,19.875Z" transform="translate(-8.531 -8.531)" stroke="#000" stroke-width="0.2"/>
    <path id="Path_74389" data-name="Path 74389" d="M16.25,0A8.259,8.259,0,0,0,8,8.25c0,5.922,7.685,13.342,8.012,13.655a.344.344,0,0,0,.475,0c.327-.313,8.012-7.732,8.012-13.655A8.259,8.259,0,0,0,16.25,0Zm0,21.173C14.942,19.86,8.688,13.318,8.688,8.25a7.563,7.563,0,0,1,15.125,0C23.813,13.316,17.558,19.86,16.25,21.173Z" stroke="#000" stroke-width="0.2"/>
  </g>
</svg>
