<svg xmlns="http://www.w3.org/2000/svg" width="209.99" height="75" viewBox="0 0 209.99 75">
  <g id="Group_6644" data-name="Group 6644" transform="translate(-130 -215)">
    <path id="Path_36" data-name="Path 36" d="M70.61-44.05Zm7.1,0Zm42.594,0a19.314,19.314,0,0,0-6-14.286A19.521,19.521,0,0,0,100-64.243,20.138,20.138,0,0,0,85.6-58.337,19.443,19.443,0,0,0,79.683-44.05a19.575,19.575,0,0,0,6,14.366A19.521,19.521,0,0,0,100-23.778a19.521,19.521,0,0,0,14.315-5.906A19.575,19.575,0,0,0,120.308-44.05Zm7.1,0a26.533,26.533,0,0,1-8.061,19.474A26.221,26.221,0,0,1,100-16.595a26.409,26.409,0,0,1-19.514-7.981,26.633,26.633,0,0,1-7.9-19.474,26.1,26.1,0,0,1,8.061-19.394h-.08a26.313,26.313,0,0,1,19.433-7.981,27.66,27.66,0,0,1,11.356,2.275,25.629,25.629,0,0,1,8.957,6.664V-90.82h7.1Zm43.153,0a19.314,19.314,0,0,0-6-14.286,19.521,19.521,0,0,0-14.315-5.906,20.138,20.138,0,0,0-14.395,5.906A19.443,19.443,0,0,0,129.94-44.05a19.575,19.575,0,0,0,6,14.366,19.522,19.522,0,0,0,14.315,5.906,19.521,19.521,0,0,0,14.315-5.906A19.575,19.575,0,0,0,170.564-44.05Zm7.1,0a26.533,26.533,0,0,1-8.061,19.474,26.221,26.221,0,0,1-19.355,7.981,26.409,26.409,0,0,1-19.514-7.981,26.633,26.633,0,0,1-7.9-19.474A26.1,26.1,0,0,1,130.9-63.445h-.08a26.313,26.313,0,0,1,19.433-7.981,27.659,27.659,0,0,1,11.356,2.275,25.629,25.629,0,0,1,8.957,6.664V-90.82h7.1Zm41.637,0a19.5,19.5,0,0,0-5.986-14.286,19.984,19.984,0,0,0-14.286-5.906,19.555,19.555,0,0,0-14.366,5.906A19.331,19.331,0,0,0,178.68-44.05a19.593,19.593,0,0,0,5.986,14.366,19.555,19.555,0,0,0,14.366,5.906,19.5,19.5,0,0,0,14.286-5.986A19.5,19.5,0,0,0,219.3-44.05Zm5.587,27.456a20.249,20.249,0,0,1-2.674-4.709A32.768,32.768,0,0,1,220.5-26.97a31.933,31.933,0,0,1-3.512,3.592A29.692,29.692,0,0,1,213-20.426a29.46,29.46,0,0,1-6.744,2.833,26.586,26.586,0,0,1-7.223,1,27.917,27.917,0,0,1-10.575-1.955,26.79,26.79,0,0,1-8.9-6.026,26.5,26.5,0,0,1-7.981-19.474,26.4,26.4,0,0,1,7.981-19.394,26.5,26.5,0,0,1,19.474-7.981,26.14,26.14,0,0,1,19.315,7.981h-.08a26.311,26.311,0,0,1,8.141,19.394q0,16.84,6.385,27.456Z" transform="translate(107.198 305.82)" fill="#fff"/>
    <rect id="Rectangle_19" data-name="Rectangle 19" width="6.538" height="34.326" transform="translate(227.512 245.093)" fill="#fff"/>
    <rect id="Rectangle_20" data-name="Rectangle 20" width="6.538" height="34.326" transform="translate(278.184 245.093)" fill="#fff"/>
    <path id="Path_34" data-name="Path 34" d="M3086.156,1057.1a30.052,30.052,0,0,0,.521,7.8,22.76,22.76,0,0,0,3.732,7.6h-6.77a27.6,27.6,0,0,1-2.885-7.6,39.9,39.9,0,0,1-.529-7.108Z" transform="translate(-2852.047 -782.504)" fill="#fff"/>
    <path id="Path_35" data-name="Path 35" d="M3086.762,1057.1a27.318,27.318,0,0,0,.574,7.8,22.087,22.087,0,0,0,4.113,7.6h-7.461a26.181,26.181,0,0,1-3.18-7.6,36.277,36.277,0,0,1-.583-7.108Z" transform="translate(-2802.036 -782.504)" fill="#fff"/>
    <path id="Path_37" data-name="Path 37" d="M52.744-39.572a19.523,19.523,0,0,0-5.961-14.361,20.206,20.206,0,0,0-14.417-5.937,19.774,19.774,0,0,0-14.5,5.937,19.394,19.394,0,0,0-6.041,14.361,19.656,19.656,0,0,0,6.041,14.441,19.774,19.774,0,0,0,14.5,5.937,20.206,20.206,0,0,0,14.417-5.937A20.139,20.139,0,0,0,52.744-39.572Zm7.14,0A26.806,26.806,0,0,1,51.861-20a26.609,26.609,0,0,1-19.5,8.023,28.2,28.2,0,0,1-10.714-1.966A27.161,27.161,0,0,1,12.71-20,27.332,27.332,0,0,1,4.687-39.572a26.37,26.37,0,0,1,8.023-19.5A26.8,26.8,0,0,1,32.366-67.09a26.609,26.609,0,0,1,19.5,8.023h-.08A26.578,26.578,0,0,1,59.884-39.572Z" transform="translate(125.313 301.392)" fill="#efac0a"/>
  </g>
</svg>
