<svg xmlns="http://www.w3.org/2000/svg" width="80.049" height="79.918" viewBox="0 0 80.049 79.918"><g transform="translate(-78.991 -289.082)"><path d="M78.991,289.082H91.225L107.99,325.33h28.395l16.463-28.244h6.192l-18.275,33.983-34.134.906L100.59,342.4h48.935v5.286H100.59a6.759,6.759,0,0,1-4.229-1.51c-1.518-1.518-.843-4.561-.843-4.561l6.733-14.62L87.3,294.821H78.991Z" fill="#9ea5ab"/><path d="M121.417,290.333,136,304.75,121.75,319.5l-4.583-4.417,7.25-6.917h-18.25v-6.083h18.25L117.167,295Z" fill="#9ca1a5"/><circle cx="7.5" cy="7.5" r="7.5" transform="translate(95 354)" fill="#9ba0a4"/><circle cx="7.5" cy="7.5" r="7.5" transform="translate(135 354)" fill="#9ba0a4"/></g></svg>