<svg xmlns="http://www.w3.org/2000/svg" width="17.6" height="22" viewBox="0 0 17.6 22">
  <g id="Icons" transform="translate(-9 -5)">
    <path id="Path_74374" data-name="Path 74374" d="M26.6,37.8H25.5V32.85a2.75,2.75,0,0,0-2.75-2.75h-9.9a2.75,2.75,0,0,0-2.75,2.75V37.8H9V32.85A3.85,3.85,0,0,1,12.85,29h9.9a3.85,3.85,0,0,1,3.85,3.85Z" transform="translate(0 -10.8)"/>
    <path id="Path_74375" data-name="Path 74375" d="M20.05,17.1a6.05,6.05,0,1,1,6.05-6.05,6.05,6.05,0,0,1-6.05,6.05Zm0-11A4.95,4.95,0,1,0,25,11.05,4.95,4.95,0,0,0,20.05,6.1Z" transform="translate(-2.25)"/>
  </g>
</svg>
