<svg xmlns="http://www.w3.org/2000/svg" width="22" height="19.801" viewBox="0 0 22 19.801">
  <g id="Icons" transform="translate(-5.002 -7)">
    <g id="Path_74390" data-name="Path 74390">
      <path d="M 15.99795436859131 26.70074081420898 C 15.8808536529541 26.70074081420898 15.769944190979 26.65599060058594 15.68564414978027 26.57472991943359 L 6.857893943786621 18.04398155212402 C 5.087374210357666 16.15643119812012 4.60694408416748 13.39665031433105 5.637383937835693 11.01661014556885 C 6.667953968048096 8.637351036071777 9.008844375610352 7.099970817565918 11.60108375549316 7.099970817565918 L 11.62403392791748 7.099930763244629 C 13.220534324646 7.099930763244629 14.7512035369873 7.690420627593994 15.93409442901611 8.76262092590332 L 16.00125312805176 8.823500633239746 L 16.06841468811035 8.76262092590332 C 17.25131416320801 7.690420627593994 18.78198432922363 7.099930763244629 20.37847328186035 7.099930763244629 L 20.40107345581055 7.099970817565918 C 22.98971366882324 7.099960803985596 25.32937431335449 8.63352108001709 26.36198425292969 11.00689029693604 C 27.39428901672363 13.37953662872314 26.92218208312988 16.13569068908691 25.15915870666504 18.02938842773438 L 16.31130409240723 26.57479095458984 C 16.2275447845459 26.65552139282227 16.11726379394531 26.70026969909668 16.0008544921875 26.70073127746582 L 15.99795436859131 26.70074081420898 Z M 11.72452354431152 8.136030197143555 C 10.29810428619385 8.136030197143555 8.938963890075684 8.673040390014648 7.897473812103271 9.648140907287598 C 5.687543869018555 11.71721076965332 5.512723922729492 15.12728023529053 7.499484062194824 17.41150093078613 L 7.502334117889404 17.41477012634277 L 7.505454063415527 17.41779136657715 L 15.9317741394043 25.5580997467041 L 16.00123405456543 25.62520027160645 L 16.07071304321289 25.55812072753906 L 24.51904487609863 17.40130996704102 L 24.5211238861084 17.39930152893066 L 24.52309417724609 17.39717102050781 C 26.03161430358887 15.76168060302734 26.42887306213379 13.38832092285156 25.53516387939453 11.35074043273926 C 24.64235305786133 9.315250396728516 22.6292839050293 8.00001049041748 20.40661430358887 8.00001049041748 L 20.40133476257324 8.00001049041748 L 20.38606452941895 7.999990463256836 C 18.85324478149414 7.999990463256836 17.37473487854004 8.64309024810791 16.32962417602539 9.764400482177734 C 16.24500465393066 9.854770660400391 16.12526321411133 9.90669059753418 16.00125312805176 9.90669059753418 C 15.8772439956665 9.90669059753418 15.75750350952148 9.854770660400391 15.67274379730225 9.764230728149414 C 14.61410427093506 8.713340759277344 13.21283435821533 8.136030197143555 11.72452354431152 8.136030197143555 Z" stroke="none"/>
      <path d="M 11.62399482727051 7.199922561645508 L 11.60108375549316 7.199962615966797 C 9.048734664916992 7.199962615966797 6.743854522705078 8.713691711425781 5.729154586791992 11.05634307861328 C 4.715173721313477 13.3983325958252 5.186925888061523 16.11366653442383 6.930986404418945 17.97555351257324 L 15.75504302978516 26.50272369384766 C 15.82061386108398 26.56593322753906 15.90688323974609 26.60074234008789 16.00045394897461 26.60073280334473 C 16.09100341796875 26.60037231445312 16.17678451538086 26.5655632019043 16.2418327331543 26.50286293029785 L 25.08789253234863 17.95918464660645 C 26.82220840454102 16.09467697143555 27.28633117675781 13.3820743560791 26.27029418945312 11.04678344726562 C 25.25356292724609 8.709932327270508 22.94989395141602 7.199962615966797 20.4006233215332 7.199962615966797 L 20.37823486328125 7.199922561645508 C 18.8067741394043 7.199922561645508 17.30003356933594 7.781211853027344 16.13557434082031 8.836711883544922 L 16.00125312805176 8.958461761474609 L 15.86693382263184 8.836711883544922 C 14.70247459411621 7.781211853027344 13.19563484191895 7.199922561645508 11.62399482727051 7.199922561645508 M 16.00121307373047 25.76422119140625 L 7.424034118652344 17.47711181640625 C 5.40179443359375 15.15212249755859 5.579734802246094 11.68116188049316 7.829133987426758 9.575141906738281 C 8.889114379882812 8.582733154296875 10.27252388000488 8.0361328125 11.72452354431152 8.036022186279297 C 13.23929405212402 8.035913467407227 14.66558456420898 8.623533248901367 15.74063491821289 9.690622329711914 L 15.7457447052002 9.695882797241211 C 15.81166458129883 9.766302108764648 15.90479469299316 9.806682586669922 16.00125312805176 9.806682586669922 C 16.09771347045898 9.806682586669922 16.19084358215332 9.766292572021484 16.25647354125977 9.696212768554688 C 17.32038497924805 8.554733276367188 18.8255443572998 7.900032043457031 20.38602447509766 7.899991989135742 L 20.40664291381836 7.900012969970703 C 22.66898345947266 7.900012969970703 24.71799468994141 9.238733291625977 25.62674331665039 11.31057167053223 C 26.53641510009766 13.3845329284668 26.13205337524414 15.80028343200684 24.59659385681152 17.46496200561523 L 24.58850479125977 17.47324180603027 L 16.00121307373047 25.76422119140625 M 11.62399673461914 6.999921798706055 C 13.24181938171387 6.999921798706055 14.80216598510742 7.601644515991211 16.00125312805176 8.688531875610352 C 17.20600509643555 7.596513748168945 18.77539443969727 6.994230270385742 20.40142440795898 6.999961853027344 C 23.028564453125 6.999961853027344 25.40556335449219 8.557992935180664 26.45368385314941 10.96699333190918 C 27.50179290771484 13.37599182128906 27.02144432067871 16.17721176147461 25.23061370849609 18.09939193725586 L 16.38077354431152 26.6467227935791 C 16.27800941467285 26.74576759338379 16.14060592651367 26.80073547363281 15.99795341491699 26.80074310302734 C 15.85563087463379 26.80074310302734 15.71877861022949 26.74556732177734 15.61624336242676 26.6467227935791 L 6.78840446472168 18.11589241027832 C 4.988334655761719 16.19700241088867 4.499843597412109 13.39230346679688 5.545614242553711 10.97688293457031 C 6.591354370117188 8.562582015991211 8.971094131469727 6.999961853027344 11.60108375549316 6.999961853027344 C 11.60872650146484 6.999935150146484 11.61635780334473 6.999921798706055 11.62399673461914 6.999921798706055 Z M 20.40142440795898 8.100011825561523 C 18.88535308837891 8.096132278442383 17.43637466430664 8.723613739013672 16.40277481079102 9.832572937011719 C 16.29877471923828 9.943653106689453 16.15341377258301 10.00668334960938 16.00125312805176 10.00668334960938 C 15.84909439086914 10.00668334960938 15.70373344421387 9.943653106689453 15.59974479675293 9.832572937011719 C 13.49943351745605 7.747819900512695 10.1260814666748 7.698585510253906 7.965824127197266 9.721141815185547 C 5.805553436279297 11.74371337890625 5.632823944091797 15.11299324035645 7.574934005737305 17.34586334228516 L 16.00125312805176 25.48618316650391 L 24.4495849609375 17.3293628692627 C 25.9311637878418 15.72309303283691 26.32133483886719 13.39209175109863 25.44358444213867 11.39090156555176 C 24.56582260131836 9.389711380004883 22.58633613586426 8.100238800048828 20.40142440795898 8.100011825561523 Z" stroke="none" fill="#fff"/>
    </g>
  </g>
</svg>
