<svg xmlns="http://www.w3.org/2000/svg" width="17.226" height="18" viewBox="0 0 17.226 18">
  <g id="home" transform="translate(-10.256 0)">
    <g id="Group_6634" data-name="Group 6634" transform="translate(10.256 0.001)">
      <path id="Path_74365" data-name="Path 74365" d="M27.3,7.9,19.288.171a.6.6,0,0,0-.839,0L10.44,7.9a.6.6,0,0,0,.419,1.038h1.064V17.4a.6.6,0,0,0,.6.6h4.227a.6.6,0,0,0,.6-.6V12.566h3.019V17.4a.6.6,0,0,0,.6.6H25.21a.6.6,0,0,0,.6-.6V8.942h1.064A.6.6,0,0,0,27.3,7.9Zm-1.484.434a.6.6,0,0,0-.6.6V17.4H20.983V12.566a.6.6,0,0,0-.6-.6H17.359a.6.6,0,0,0-.6.6V17.4H12.528V8.942a.6.6,0,0,0-.6-.6H10.86L18.869.606l8.012,7.733H25.814Z" transform="translate(-10.256 -0.001)"/>
    </g>
  </g>
</svg>
