<svg xmlns="http://www.w3.org/2000/svg" width="17.455" height="20" viewBox="0 0 17.455 20">
  <g id="Layer_1" transform="translate(-4 -2.25)">
    <g id="Group_6633" data-name="Group 6633" transform="translate(4 2.25)">
      <path id="Path_74361" data-name="Path 74361" d="M19.227,20.477a.727.727,0,0,0,.727-.727V12.477a.727.727,0,1,0-1.455,0V19.75A.727.727,0,0,0,19.227,20.477Z" transform="translate(-7.955 -4.841)" fill="#e80505"/>
      <path id="Path_74362" data-name="Path 74362" d="M12.227,20.477a.727.727,0,0,0,.727-.727V12.477a.727.727,0,1,0-1.455,0V19.75A.727.727,0,0,0,12.227,20.477Z" transform="translate(-6.045 -4.841)" fill="#e80505"/>
      <path id="Path_74363" data-name="Path 74363" d="M17.545,3.7a.727.727,0,0,0,0-1.455H11.727a.727.727,0,1,0,0,1.455Z" transform="translate(-5.909 -2.25)" fill="#e80505"/>
      <path id="Path_74364" data-name="Path 74364" d="M4.727,5.25a.727.727,0,1,0,0,1.455h.727V20.086a2.986,2.986,0,0,0,2.982,2.982h8.582A2.986,2.986,0,0,0,20,20.086V6.7h.727a.727.727,0,0,0,0-1.455h-16ZM18.545,6.7V20.086a1.527,1.527,0,0,1-1.527,1.527H8.436a1.527,1.527,0,0,1-1.527-1.527V6.7Z" transform="translate(-4 -3.068)" fill="#e80505"/>
    </g>
  </g>
</svg>
