<svg xmlns="http://www.w3.org/2000/svg" width="18.501" height="14" viewBox="0 0 18.501 14">
  <g id="next" transform="translate(0 -48.016)">
    <g id="Group_1095" data-name="Group 1095" transform="translate(9.167 48.016)">
      <g id="Group_1094" data-name="Group 1094" transform="translate(0 0)">
        <path id="Path_56856" data-name="Path 56856" d="M232.65,53.366,227.983,48.7a2.333,2.333,0,1,0-3.3,3.3l3.017,3.017-3.017,3.017a2.333,2.333,0,1,0,3.3,3.3l4.667-4.667a2.332,2.332,0,0,0,0-3.3Zm-.825,2.475-4.667,4.667a1.194,1.194,0,0,1-1.65,0,1.168,1.168,0,0,1,0-1.65l3.842-3.842-3.842-3.842a1.167,1.167,0,0,1,1.65-1.651l4.667,4.667a1.168,1.168,0,0,1,0,1.651Z" transform="translate(-224 -48.016)" fill="#01518d"/>
      </g>
    </g>
    <g id="Group_1097" data-name="Group 1097" transform="translate(0 48.016)">
      <g id="Group_1096" data-name="Group 1096" transform="translate(0 0)">
        <path id="Path_56857" data-name="Path 56857" d="M8.65,53.366,3.983,48.7A2.333,2.333,0,1,0,.684,52L3.7,55.015.684,58.033a2.333,2.333,0,1,0,3.3,3.3L8.65,56.665a2.332,2.332,0,0,0,0-3.3ZM7.825,55.84,3.158,60.507a1.194,1.194,0,0,1-1.65,0,1.168,1.168,0,0,1,0-1.65l3.842-3.842L1.509,51.173a1.167,1.167,0,0,1,1.65-1.651l4.667,4.667a1.168,1.168,0,0,1,0,1.651Z" transform="translate(0 -48.016)" fill="#01518d"/>
      </g>
    </g>
  </g>
</svg>
