<svg xmlns="http://www.w3.org/2000/svg" width="20.532" height="23" viewBox="0 0 20.532 23">
  <path id="logout" d="M42.906,13.357a.719.719,0,0,0-.719.719v2.805a.984.984,0,0,1-.983.983H37.436V6.637a2.365,2.365,0,0,0-1.21-2.1l-5.376-3.1H41.2a.984.984,0,0,1,.983.983v3.2a.719.719,0,1,0,1.437,0V2.42A2.423,2.423,0,0,0,41.2,0H29.87a2.423,2.423,0,0,0-2.42,2.42V17.6a2.365,2.365,0,0,0,1.21,2.1l5.146,2.971a2.365,2.365,0,0,0,2.42,0,2.365,2.365,0,0,0,1.21-2.1V19.3H41.2a2.423,2.423,0,0,0,2.42-2.42V14.076a.719.719,0,0,0-.719-.719ZM36,20.571a.983.983,0,0,1-1.474.851l-5.146-2.971a.948.948,0,0,1-.491-.851V2.42a.977.977,0,0,1,.088-.406l6.533,3.772A.948.948,0,0,1,36,6.637ZM47.771,10.159l-2.335,2.335a.719.719,0,0,1-1.016-1.016l1.109-1.109h-6.6a.719.719,0,1,1,0-1.437h6.6L44.42,7.823a.719.719,0,0,1,1.016-1.016l2.335,2.335a.719.719,0,0,1,0,1.016Z" transform="translate(-27.45 0)" fill="#888"/>
</svg>
