<svg xmlns="http://www.w3.org/2000/svg" width="22.319" height="22" viewBox="0 0 22.319 22">
  <g id="Order_history" transform="translate(-44.984 -48)">
    <path id="Path_74367" data-name="Path 74367" d="M55.891,69.154H46.348a7.956,7.956,0,0,0,1.706-4.947V48.846H62.777v8.1a.423.423,0,1,0,.846,0V48.423A.423.423,0,0,0,63.2,48H47.631a.423.423,0,0,0-.423.423V64.207a7.124,7.124,0,0,1-2.1,5.071.423.423,0,0,0,.3.722H55.891a.423.423,0,1,0,0-.846Z"/>
    <path id="Path_74368" data-name="Path 74368" d="M152.6,148.766H142.9a.423.423,0,1,0,0,.846H152.6a.423.423,0,1,0,0-.846Z" transform="translate(-92.336 -95.437)"/>
    <path id="Path_74369" data-name="Path 74369" d="M153.028,203.392a.423.423,0,0,0-.423-.423H142.9a.423.423,0,0,0,0,.846H152.6A.423.423,0,0,0,153.028,203.392Z" transform="translate(-92.336 -146.774)"/>
    <path id="Path_74370" data-name="Path 74370" d="M148.809,257.6a.423.423,0,0,0-.423-.423H142.9a.423.423,0,1,0,0,.846h5.487A.423.423,0,0,0,148.809,257.6Z" transform="translate(-92.336 -198.11)"/>
    <path id="Path_74371" data-name="Path 74371" d="M142.9,311.375a.423.423,0,1,0,0,.846h3.451a.423.423,0,0,0,0-.846Z" transform="translate(-92.337 -249.447)"/>
    <path id="Path_74372" data-name="Path 74372" d="M252.088,258.736a5.464,5.464,0,0,0-9.251,2.93l-.336-.336a.423.423,0,0,0-.6.6l.974.974a.424.424,0,0,0,.6,0l.974-.974a.423.423,0,0,0-.6-.6l-.1.1a4.619,4.619,0,1,1,1.2,4.446.423.423,0,0,0-.6.6,5.469,5.469,0,0,0,7.734-7.734Z" transform="translate(-186.387 -198.072)"/>
    <path id="Path_74373" data-name="Path 74373" d="M356.028,291.32a.423.423,0,0,0-.423.423v3.24a.429.429,0,0,0,.124.3l1.533,1.533a.423.423,0,1,0,.6-.6l-1.41-1.41v-3.065A.423.423,0,0,0,356.028,291.32Z" transform="translate(-294.194 -230.452)"/>
  </g>
</svg>
