<svg xmlns="http://www.w3.org/2000/svg" width="51.822" height="50" viewBox="0 0 51.822 50">
  <g id="support_1_" data-name="support(1)" transform="translate(-0.551 -9)">
    <g id="Group_6636" data-name="Group 6636" transform="translate(0.551 9)">
      <path id="Path_74391" data-name="Path 74391" d="M221.059,433.986A2.986,2.986,0,0,0,218.073,431h-3.036a2.986,2.986,0,1,0,0,5.972h3.036A2.986,2.986,0,0,0,221.059,433.986Z" transform="translate(-190.644 -388.287)" fill="#98bff3" fill-rule="evenodd"/>
      <path id="Path_74392" data-name="Path 74392" d="M20.687,200.506a.506.506,0,0,0-.506-.506H18.123a4.572,4.572,0,0,0-4.572,4.572v4.575a4.573,4.573,0,0,0,4.572,4.572h2.057a.506.506,0,0,0,.506-.506Z" transform="translate(-12.235 -180.668)" fill="#98bff3" fill-rule="evenodd"/>
      <path id="Path_74393" data-name="Path 74393" d="M429.557,200a.506.506,0,0,0-.506.506v12.708a.506.506,0,0,0,.506.506h2.057a4.572,4.572,0,0,0,4.572-4.572v-4.575A4.572,4.572,0,0,0,431.614,200Z" transform="translate(-385.681 -180.668)" fill="#98bff3" fill-rule="evenodd"/>
      <path id="Path_74394" data-name="Path 74394" d="M6.649,43.368h-.21A5.888,5.888,0,0,1,.551,37.479V32.9a5.888,5.888,0,0,1,5.888-5.888H8.5v-.051a17.966,17.966,0,1,1,35.931,0v.051h2.057A5.888,5.888,0,0,1,52.373,32.9v4.575a5.888,5.888,0,0,1-5.888,5.888H43.632a1.027,1.027,0,0,1-1.027-1.027V26.966a16.144,16.144,0,0,0-32.287,0V42.341a1.027,1.027,0,0,1-1.027,1.027h-.82a10.506,10.506,0,0,0,10.506,10.42H20.74a4.3,4.3,0,0,1,4.2-3.391H27.98a4.3,4.3,0,1,1,0,8.6H24.944a4.3,4.3,0,0,1-4.2-3.391H18.977A12.328,12.328,0,0,1,6.649,43.368ZM30.46,54.7a2.48,2.48,0,0,0-2.48-2.48H24.944a2.48,2.48,0,0,0,0,4.96H27.98A2.48,2.48,0,0,0,30.46,54.7ZM8.5,28.838H6.439A4.066,4.066,0,0,0,2.373,32.9v4.575a4.066,4.066,0,0,0,4.066,4.066H8.5Zm35.931,0V41.546h2.057a4.066,4.066,0,0,0,4.066-4.066V32.9a4.066,4.066,0,0,0-4.066-4.066Z" transform="translate(-0.551 -9)" fill="#0065b0" fill-rule="evenodd"/>
    </g>
  </g>
</svg>
